<?xml version="1.0" encoding="UTF-8"?>
<svg width="289px" height="340px" viewBox="0 0 289 340" version="1.1" xmlns="http://www.w3.org/2000/svg" xmlns:xlink="http://www.w3.org/1999/xlink">
    <!-- Generator: Sketch 49.3 (51167) - http://www.bohemiancoding.com/sketch -->
    <title>cute_fox</title>
    <desc>Created with Sketch.</desc>
    <defs></defs>
    <g id="Page-1" stroke="none" stroke-width="1" fill="none" fill-rule="evenodd">
        <g id="cute_fox">
            <path d="M288.555,230.829 C288.555,225.244 283.328,221.725 279.278,216.239 C279.27,216.232 279.266,216.223 279.258,216.216 C276.467,212.425 274.236,207.691 274.669,200.689 C276.653,168.64 264.715,145.061 246.666,131.691 C259.989,123.709 281.624,95.591 279.522,67.915 C277.672,43.529 258.1,29.006 239.109,29.852 L239.109,29.856 C243.037,50.444 235.441,81.084 209.791,81.084 C215.038,85.433 220.264,89.046 224.491,91.916 C241.876,103.724 236.936,119.679 234.193,124.469 L234.189,124.473 C231.804,123.426 229.356,122.529 226.86,121.785 C225.672,121.427 224.471,121.1 223.259,120.813 C215.3,119.035 206.854,119.568 199.447,123.143 C199.447,123.143 199.447,123.142 199.447,123.142 C198.003,123.796 196.775,122.076 197.264,120.908 L197.26,120.908 C199.745,114.942 201.78,109.158 203.214,103.767 C203.218,103.747 203.226,103.727 203.23,103.708 C203.548,102.413 202.848,100.587 201.144,99.95 C201.14,99.946 201.136,99.946 201.132,99.946 C201.037,99.919 200.943,99.887 200.844,99.856 C200.828,99.848 200.808,99.84 200.789,99.836 C194.929,97.903 187.274,91.728 175.191,77.481 C172.117,73.86 167.898,70.558 162.825,67.728 C170.232,45.632 162.235,13.729 144.303,0.347 C122.007,12.351 112.132,47.537 112.128,57.644 C103.513,58.242 94.759,59.955 86.309,62.997 C77.894,66.146 70.113,70.503 63.155,75.623 C56.571,67.913 26.28,47.545 1.54,52.846 C-3.443,74.623 11.088,104.059 31.003,116.118 C28.972,121.553 27.894,126.796 27.894,131.538 C27.894,150.217 26.052,159.88 22.832,165.146 C22.769,165.252 22.702,165.358 22.639,165.46 C22.627,165.468 22.623,165.48 22.619,165.488 C21.742,167.094 22.422,168.955 23.528,169.711 C28.294,173.029 33.84,176.252 39.877,179.302 C51.578,185.218 65.129,190.484 78.472,194.51 C78.472,194.51 75.709,227.713 72.297,254.499 C70.172,271.191 67.794,285.392 65.677,287.509 C60.167,293.019 45.187,299.596 45.407,308.845 C45.706,321.27 56.624,327.146 66.464,324.785 C76.304,322.424 90.85,315.339 88.89,300.777 C87.855,293.094 90.98,276.328 94.168,261.096 C95.624,254.11 97.1,247.447 98.187,242.137 C111.092,247.372 125.58,249.395 139.706,248.726 C140.772,254.751 141.761,261.336 142.485,267.846 C144.476,285.73 144.485,303.095 138.774,307.074 C128.053,314.552 123.172,326.238 131.556,334.624 C139.943,343.011 157.383,338.954 162.105,329.508 C166.828,320.062 170.744,313.883 167.269,301.682 C165.659,296.034 165.179,281.499 165.124,267.523 C165.124,267.511 165.124,267.496 165.124,267.483 C165.092,258.844 165.222,250.425 165.352,244.443 C172.626,242.294 179.399,239.393 185.326,235.835 C189.136,233.549 192.91,231.29 196.618,229.042 C199.192,231.797 200.778,234.682 200.778,238.366 C200.778,248.205 201.057,260.552 191.305,265.496 C181.465,270.478 180.033,283.758 187.499,289.111 C193.666,293.527 200.093,294.912 208.941,293.908 C219.697,292.688 224.759,284.781 222.791,274.155 C220.823,263.529 228.805,236.477 228.805,227.031 C228.805,221.879 224.354,218.49 220.489,213.685 C223.343,211.674 226.073,209.643 228.674,207.59 L228.679,207.594 C229.367,207.048 230.095,207.152 230.666,208.016 C230.666,208.016 230.667,208.016 230.667,208.016 C232.799,211.321 235.274,214.243 238.011,216.979 C243.458,222.426 248.937,226.205 253.12,229.783 C257.544,233.557 260.527,237.107 260.527,242.161 C260.527,252 260.81,264.347 251.053,269.29 C241.214,274.277 239.785,287.556 247.247,292.905 C253.414,297.325 259.841,298.706 268.689,297.703 C279.445,296.483 284.507,288.576 282.539,277.949 C280.571,267.322 288.555,240.274 288.555,230.829 Z" id="Shape" fill="#5F5F5F" fill-rule="nonzero"></path>
            <path d="M274.669,200.688 C276.653,168.639 264.715,145.06 246.666,131.69 C259.989,123.708 281.624,95.59 279.522,67.914 C277.672,43.528 258.1,29.005 239.109,29.851 L239.109,29.855 C243.037,50.443 235.441,81.083 209.791,81.083 C215.038,85.432 220.264,89.045 224.491,91.915 C241.876,103.723 236.936,119.678 234.193,124.468 L234.189,124.472 C231.804,123.425 229.356,122.528 226.86,121.784 C225.672,121.426 224.471,121.099 223.259,120.812 C215.3,119.034 206.854,119.567 199.447,123.142 C199.447,123.142 199.447,123.141 199.447,123.141 C198.003,123.795 196.775,122.075 197.264,120.907 L197.26,120.907 C199.745,114.941 201.78,109.157 203.214,103.766 C203.218,103.746 203.226,103.726 203.23,103.707 C203.548,102.412 202.848,100.586 201.144,99.949 C201.14,99.945 201.136,99.945 201.132,99.945 C201.037,99.918 200.943,99.886 200.844,99.855 C200.828,99.847 200.808,99.839 200.789,99.835 C194.929,97.902 187.274,91.727 175.191,77.48 C172.117,73.859 167.898,70.557 162.825,67.727 C170.232,45.631 162.235,13.728 144.303,0.346 C122.007,12.35 112.132,47.536 112.128,57.643 C103.513,58.241 94.759,59.954 86.309,62.996 C77.894,66.145 70.113,70.502 63.155,75.622 C56.571,67.912 26.28,47.544 1.54,52.845 C-3.443,74.622 11.088,104.058 31.003,116.117 C28.972,121.552 27.894,126.795 27.894,131.537 C27.894,150.216 26.052,159.879 22.832,165.145 C22.769,165.251 22.702,165.357 22.639,165.459 C22.627,165.467 22.623,165.479 22.619,165.487 C21.742,167.093 22.422,168.954 23.528,169.71 C28.294,173.028 33.84,176.251 39.877,179.301 C51.578,185.217 65.129,190.483 78.472,194.509 C78.472,194.509 75.709,227.712 72.297,254.498 C72.297,254.294 72.71,254.022 73.041,254.223 C78.905,257.754 86.222,260.205 93.594,260.307 C93.964,260.307 94.287,260.524 94.165,261.095 L94.169,261.095 C95.625,254.109 97.101,247.446 98.188,242.136 C111.093,247.371 125.581,249.394 139.707,248.725 C140.773,254.75 141.762,261.335 142.486,267.845 C142.486,267.223 142.919,266.905 143.419,267.065 C149.913,269.194 157.316,269.281 163.964,266.664 C163.972,266.66 163.976,266.66 163.984,266.656 C164.543,266.44 165.07,266.668 165.126,267.483 C165.094,258.844 165.224,250.425 165.354,244.443 C172.628,242.294 179.401,239.393 185.328,235.835 C189.138,233.549 192.912,231.29 196.62,229.042 C205.066,223.917 213.158,218.856 220.491,213.685 C223.345,211.674 226.075,209.643 228.676,207.59 L228.681,207.594 C229.369,207.048 230.097,207.152 230.668,208.016 C230.668,208.016 230.669,208.016 230.669,208.016 C232.801,211.321 235.276,214.243 238.013,216.979 C243.46,222.426 248.939,226.205 253.122,229.783 L253.122,229.779 C252.437,229.2 252.689,228.756 253.366,228.645 C253.369,228.645 253.369,228.645 253.373,228.645 C262.599,227.307 272.722,223.229 277.949,215.995 C278.267,215.543 278.72,215.519 279.26,216.216 C276.468,212.424 274.236,207.69 274.669,200.688 Z M34.074,109.161 C19.074,98.495 10.872,77.348 9.924,68.103 C21.971,66.103 45.07,80.764 50.281,86.833 C43.421,93.894 37.911,101.593 34.074,109.161 Z M155.985,64.403 C148.164,61.116 138.986,58.814 129.193,57.869 C129.193,49.934 137.309,23.695 147.806,17.397 C153.081,25.069 160.547,46.546 155.985,64.403 Z" id="Shape" fill="#CD6634" fill-rule="nonzero"></path>
            <path d="M69.255,289.73 C75.342,290.709 80.437,292.491 84.733,295.313 M162.567,306.413 C157.31,305.091 151.358,304.657 145.396,305.127 M216.887,268.298 C212.365,266.188 206.744,265.267 200.481,265.245 M277.894,270.91 C273.022,268.386 266.751,267.359 259.712,267.429" id="Shape" stroke="#484A4A" stroke-width="0.5" stroke-linecap="round" stroke-linejoin="round"></path>
            <path d="M226.657,200.314 C223.905,193.555 222.323,185.26 222.323,174.437 M268.765,89.921 C274.669,70.347 265.617,51.246 249.873,43.374" id="Shape" stroke="#AE572A" stroke-width="0.5" stroke-linecap="round" stroke-linejoin="round"></path>
            <path d="M184.669,129.985 C174.066,137.644 162.825,150.056 149.569,144.373 C131.763,136.738 126.399,137.415 115.453,141.232 C104.638,145.404 100.111,148.36 91.476,165.705 C85.049,178.619 67.677,176.707 54.638,177.734 C54.646,181.134 63.978,189.628 75.726,193.662 C76.643,193.95 77.56,194.233 78.474,194.508 C102.738,201.833 126.317,200.857 136.842,196.476 C148.122,192.874 164.825,178.111 178.939,155.736 C185.264,145.066 186.874,132.59 184.682,130.004 L184.669,129.985 Z" id="Shape" fill="#FFFFFF" fill-rule="nonzero"></path>
            <path d="M239.109,29.855 L239.109,29.851 C236.546,29.965 233.996,30.359 231.505,31.043 C212.051,36.392 199.015,27.65 191.679,20.806 C191.671,20.798 191.667,20.794 191.659,20.79 C190.71,19.952 189.415,20.652 189.002,21.573 C188.998,21.581 188.994,21.589 188.99,21.597 C177.887,48.026 193.918,67.925 209.791,81.082 C235.441,81.083 243.037,50.443 239.109,29.855 Z" id="Shape" fill="#FFFFFF" fill-rule="nonzero"></path>
            <path d="M239.92,36.07 C236.44,36.18 232.99,36.82 229.67,38 C214.49,43.36 199.03,41.28 187.83,24.62 C179.12,49.55 194.53,68.44 209.79,81.08 C232.96,81.08 241.4,56.08 239.92,36.07 Z" id="Shape" fill="#F1F2F2" fill-rule="nonzero"></path>
            <g id="XMLID_2_" transform="translate(54.000000, 140.000000)" fill-rule="nonzero">
                <path d="M107.21,38.76 C98.29,48.16 89.6,54.32 82.84,56.48 C72.32,60.86 48.74,61.83 24.47,54.51 C23.56,54.23 22.64,53.95 21.73,53.66 C35.97,57.4 76.19,61.24 107.21,38.76 Z" id="Shape" fill="#E6E7E8"></path>
                <path d="M81.01,7.85 C81.14,8.23 81.18,8.59 81.18,8.95 C81.18,9.58 81.05,10.18 80.86,10.8 C80.67,11.42 80.41,12.06 80.1,12.72 C79.48,14.04 78.65,15.46 77.75,16.87 C75.94,19.68 73.84,22.46 72.52,24.14 L72.51,24.15 L72.46,24.21 L72.45,24.23 C71.93,24.85 71.27,25.26 70.61,25.52 C69.94,25.79 69.26,25.91 68.59,25.91 C68.27,25.91 67.95,25.88 67.64,25.82 L67.63,25.82 C66.13,25.5 64.02,25.04 61.8,24.45 C59.59,23.86 57.28,23.16 55.35,22.35 C54.06,21.81 52.94,21.24 52.05,20.51 C51.55,20.09 51.1,19.61 50.82,18.94 C50.49,18.12 50.32,17.21 50.32,16.25 C50.32,14.09 51.19,11.67 53.13,9.45 C54.1,8.34 55.32,7.27 56.85,6.29 C58.37,5.32 60.19,4.43 62.33,3.67 C62.33,3.67 62.34,3.67 62.35,3.67 C62.35,3.66 62.36,3.66 62.36,3.66 C65.54,2.45 68.34,1.94 70.77,1.94 C76.31,1.93 79.95,4.67 81.01,7.85 Z" id="Shape" fill="#E6E7E8"></path>
                <path d="M81.01,7.85 C79.95,4.67 76.31,1.93 70.77,1.94 C68.34,1.94 65.54,2.45 62.36,3.66 C62.36,3.66 62.35,3.66 62.35,3.67 C62.34,3.67 62.33,3.67 62.33,3.67 C60.19,4.43 58.37,5.32 56.85,6.29 C55.32,7.27 54.1,8.34 53.13,9.45 C51.19,11.67 50.32,14.09 50.32,16.25 C50.32,17.21 50.49,18.12 50.82,18.94 C51.1,19.61 51.55,20.09 52.05,20.51 C52.94,21.24 54.06,21.81 55.35,22.35 C57.28,23.16 59.59,23.86 61.8,24.45 C64.02,25.04 66.13,25.5 67.63,25.82 L67.64,25.82 C67.95,25.88 68.27,25.91 68.59,25.91 C69.26,25.91 69.94,25.79 70.61,25.52 C71.27,25.26 71.93,24.85 72.45,24.23 L72.46,24.21 L72.51,24.15 L72.52,24.14 C73.84,22.46 75.94,19.68 77.75,16.87 C78.65,15.46 79.48,14.04 80.1,12.72 C80.41,12.06 80.67,11.42 80.86,10.8 C81.05,10.18 81.18,9.58 81.18,8.95 C81.18,8.59 81.14,8.23 81.01,7.85 Z M63.29,0.61 C67.06,-0.53 81,-0.25 88.75,4.5 C96.5,9.25 110.85,13.95 124.75,0.05 C128.48,3.77 125.96,13.92 125.96,13.92 L125.97,13.92 C125.64,14.53 125.3,15.14 124.94,15.74 C119.28,24.7 113.21,32.45 107.23,38.75 L107.21,38.76 C76.19,61.24 35.97,57.4 21.73,53.66 C9.98,49.63 0.65,41.13 0.64,37.73 C14.25,44.25 32.75,41 37.5,32.75 C41.95,25.02 46.23,10.94 50.37,7.02 C50.37,7.01 50.38,7.01 50.38,7.01 C50.65,6.79 50.93,6.57 51.21,6.37 C54.09,4.25 57.31,2.83 61.45,1.23 C62.08,1.01 62.69,0.8 63.29,0.6 L63.29,0.61 Z" id="Shape" fill="#F1F2F2"></path>
            </g>
            <g id="XMLID_4_" fill-rule="nonzero">
                <path d="M207.29,120.53 C206.43,123.05 205.54,125.51 204.64,127.89 C200.83,128.32 197.22,129.04 193.84,129.93 C195.18,126.83 196.27,124.04 197.17,121.64 C197.25,122.46 197.94,123.28 198.81,123.28 C199.02,123.28 199.23,123.24 199.45,123.14 C201.96,121.93 204.6,121.07 207.29,120.53 Z" id="Shape" fill="#D66E3B"></path>
                <path d="M282.93,283.33 C282.53,291.17 277.54,296.69 268.69,297.7 C259.84,298.71 253.42,297.32 247.25,292.9 C244.16,290.69 242.6,287.12 242.53,283.34 C250.94,291.74 270.39,295.87 282.93,283.33 Z" id="Shape" fill="#5B5C5C"></path>
                <path d="M220.49,213.68 C222.23,215.84 224.09,217.73 225.61,219.61 C220.31,224.53 210.16,233.11 200.63,236.43 C200.17,233.64 198.72,231.3 196.62,229.04 C205.06,223.92 213.16,218.86 220.49,213.68 Z" id="Shape" fill="#5B5C5C"></path>
                <path d="M223.2,278.33 C223.28,286.81 218.23,292.86 208.94,293.91 C200.09,294.91 193.67,293.53 187.5,289.11 C184.44,286.92 182.87,283.4 182.77,279.67 C190.72,287.62 213.07,293 223.2,278.33 Z" id="Shape" fill="#5B5C5C"></path>
                <path d="M168.3,306.41 C169.24,312.85 167.84,317.57 165.52,322.6 C163.16,325.84 159.83,328.12 156.06,329.52 C160.44,327.27 166.95,316.78 168.3,306.41 Z" id="Shape" fill="#5B5C5C"></path>
                <path d="M131.56,334.62 C128.55,331.61 127.25,328.18 127.31,324.67 L127.32,324.67 C133.69,331.04 146.33,333.18 156.06,329.52 C159.83,328.12 163.16,325.84 165.52,322.6 C164.52,324.79 163.34,327.04 162.1,329.51 C157.38,338.95 139.94,343.01 131.56,334.62 Z" id="Shape" fill="#5B5C5C"></path>
                <path d="M45.7,306.42 C51.68,317.67 62.84,319.97 69.25,317.99 C75.67,316 85.78,309.22 88.89,300.78 C90.85,315.34 76.3,322.42 66.47,324.78 C56.63,327.15 45.71,321.27 45.41,308.84 C45.39,308.01 45.49,307.21 45.7,306.42 Z" id="Shape" fill="#5B5C5C"></path>
                <path d="M50.28,86.83 C47.41,89.78 44.78,92.85 42.41,95.97 C41.9,95.39 23.82,74.65 10.8,72.8 C10.35,71.03 10.06,69.44 9.92,68.1 C21.97,66.1 45.07,80.76 50.28,86.83 Z" id="Shape" fill="#5B5C5C"></path>
                <path d="M147.81,17.4 C149,19.13 150.3,21.56 151.54,24.49 C144.19,29.75 140.11,50.32 140.11,59.52 C136.59,58.79 132.94,58.23 129.19,57.87 C129.19,49.94 137.31,23.7 147.81,17.4 Z" id="Shape" fill="#5B5C5C"></path>
                <g id="Group" transform="translate(56.000000, 111.000000)" fill="#C86433">
                    <path d="M25.38,28.58 C23.54,28.58 21.8,29.03 20.27,29.82 L0,37.03 C5.98,43.02 17.87,54.55 28.67,50.89 L28.54,50.43 C33.16,49.07 36.53,44.79 36.53,39.73 C36.53,33.57 31.53,28.58 25.38,28.58 Z" id="Shape"></path>
                    <path d="M106.83,0.78 C106.83,0.78 98.91,3.04 92.9,4.34 C92.55,4.31 92.18,4.29 91.82,4.29 C85.11,4.29 79.67,9.73 79.67,16.43 C79.67,23.14 85.11,28.58 91.82,28.58 C95.89,28.58 99.5,26.58 101.69,23.5 C101.7,23.49 101.71,23.48 101.72,23.47 C109.44,15.69 106.83,0.78 106.83,0.78 Z" id="Shape"></path>
                </g>
                <path d="M112.13,57.64 C119.25,57.64 121,57.64 121,57.64 C121,57.64 124.38,57.29 129.19,57.87 C132.94,58.23 136.59,58.79 140.11,59.52 L140.11,59.53 C145.8,60.72 151.15,62.37 155.99,64.4 C155.99,64.4 155.99,64.4 162.83,67.73 C167.9,70.56 172.12,73.86 175.19,77.48 C176,78.44 176.8,79.36 177.56,80.25 C140.64,61 107,67 97.75,90 C77,78.25 57.56,89.56 31,116.12 C31,116.12 31.93,113.09 34.07,109.16 C36.3,104.76 39.1,100.31 42.41,95.97 C44.78,92.85 47.41,89.78 50.28,86.83 C56.63,80.48 58.75,78.25 58.75,78.25 C63.16,75.62 63.16,75.62 63.16,75.62 C70.11,70.5 77.9,66.14 86.31,62.99 C94.76,59.95 103.51,58.24 112.13,57.64 Z" id="Shape" fill="#CE6A39"></path>
                <path d="M207.29,120.53 C212.53,119.47 218,119.63 223.26,120.81 C224.47,121.1 225.67,121.43 226.86,121.78 C229.36,122.53 231.8,123.42 234.19,124.47 C238.07,126.24 243.35,129.06 246.67,131.69 C251.84,135.52 256.5,140.18 260.48,145.64 C239.9,129.23 220.54,126.08 204.64,127.89 C205.54,125.51 206.43,123.05 207.29,120.53 Z" id="Shape" fill="#D66E3B"></path>
                <path d="M239.11,29.85 C256.62,29.07 274.61,41.35 278.77,62.38 L278.76,62.38 C269.18,44.18 254.24,35.6 239.92,36.07 C239.76,33.93 239.49,31.84 239.11,29.85 Z" id="Shape" fill="#D66E3B"></path>
                <path d="M234.19,124.47 C235.36,122.43 236.94,118.34 236.99,113.42 C242.69,117.55 249.85,120.21 259.83,119.86 C255.27,125.21 250.61,129.33 246.67,131.69 C243.35,129.06 238.07,126.24 234.19,124.47 Z" id="Shape" fill="#C46232"></path>
                <path d="M193.84,129.93 C197.22,129.04 200.83,128.32 204.64,127.89 C181.11,190.15 146.92,205.87 140.11,207.67 C132.55,209.67 119.67,212.33 77.58,204.69 C78.14,198.44 78.47,194.51 78.47,194.51 C102.74,201.83 126.32,200.86 136.84,196.48 C146.4,193.43 159.86,182.35 172.34,165.41 C183.03,152.29 189.65,139.62 193.84,129.93 Z" id="Shape" fill="#CA6433"></path>
                <path d="M164.48,37.15 L164.47,37.15 C161.67,24.18 149.74,10.74 144.55,8.75 C144.55,8.75 124,28.5 121,57.64 C121,57.64 119.25,57.64 112.13,57.64 C112.13,47.53 122.01,12.35 144.3,0.34 C154.79,8.17 161.88,22.33 164.48,37.15 Z" id="Shape" fill="#D66E3B"></path>
                <path d="M63.16,75.62 C63.16,75.62 63.16,75.62 58.75,78.25 C47,66.5 28.25,56.5 6,56.5 C6,56.5 0.84,61.74 0.83,67.02 C0.32,62.11 0.52,57.31 1.54,52.84 C26.28,47.54 56.57,67.91 63.16,75.62 Z" id="Shape" fill="#D66E3B"></path>
            </g>
            <path d="M133.59,148.329 C134.511,151.084 128.119,159.664 125.34,163.21 C125.324,163.23 125.308,163.25 125.293,163.269 C124.498,164.229 122.991,164.56 121.932,164.347 C117.414,163.41 107.279,161.033 106.213,158.376 C104.836,154.944 106.803,148.623 116.863,145.073 C126.832,141.271 132.421,144.822 133.59,148.329 Z M77.713,147.116 C75.096,149.336 74.774,153.26 76.993,155.877 C79.213,158.494 83.137,158.813 85.754,156.593 C88.371,154.373 88.694,150.453 86.474,147.836 C84.25,145.219 80.331,144.896 77.713,147.116 Z M141.823,127.52 C141.823,130.952 144.606,133.735 148.037,133.735 C151.47,133.735 154.252,130.952 154.252,127.52 C154.252,124.088 151.47,121.305 148.037,121.305 C144.606,121.305 141.823,124.088 141.823,127.52 Z" id="Shape" fill="#5F5F5F" fill-rule="nonzero"></path>
            <g id="XMLID_1_" transform="translate(75.000000, 121.000000)" fill-rule="nonzero">
                <path d="M12.14,33.9 C11.79,34.53 11.33,35.1 10.75,35.59 C8.14,37.81 4.21,37.49 1.99,34.88 C1.24,33.99 0.78,32.97 0.61,31.9 C3.11,34.39 8.04,36.4 12.14,33.9 Z" id="Shape" fill="#5A5B5B"></path>
                <path d="M35.06,40.02 C39.39,41.5 49.66,41.93 53.23,38.36 C52.15,39.87 51.11,41.23 50.34,42.21 C50.32,42.23 50.31,42.25 50.29,42.27 C49.5,43.23 47.99,43.56 46.93,43.35 C44,42.74 38.71,41.52 35.06,40.02 Z" id="Shape" fill="#5A5B5B"></path>
                <path d="M78.71,9.04 C77.75,11.21 75.57,12.73 73.04,12.73 C69.99,12.73 67.44,10.53 66.93,7.62 C69.15,9.85 74.3,12.34 78.71,9.04 Z" id="Shape" fill="#5A5B5B"></path>
                <path d="M2.71,26.12 C5.33,23.9 9.25,24.22 11.47,26.84 C12.12,27.61 12.56,28.5 12.77,29.42 C11.05,25.87 3.27,25.97 1.27,27.91 C1.62,27.24 2.1,26.64 2.71,26.12 Z" id="Shape" fill="#636464"></path>
                <path d="M58.59,27.33 C59,28.55 57.97,30.91 56.46,33.47 C57.67,28.44 51.88,25.88 45.62,26.5 C39.38,27.12 31.75,31.64 30.83,35.05 C30.92,31.56 33.79,26.92 41.86,24.07 C51.83,20.27 57.42,23.82 58.59,27.33 Z" id="Shape" fill="#636464"></path>
                <path d="M73.04,0.31 C76.29,0.31 78.95,2.8 79.22,5.98 C77.44,1.24 70.74,0.75 67.68,3.38 C68.75,1.54 70.75,0.31 73.04,0.31 Z" id="Shape" fill="#636464"></path>
            </g>
            <path d="M85.336,149.162 C85.336,150.03 84.633,150.733 83.765,150.733 C82.897,150.733 82.194,150.03 82.194,149.162 C82.194,148.294 82.897,147.591 83.765,147.591 C84.633,147.591 85.336,148.294 85.336,149.162 Z M149.972,123.294 C149.105,123.294 148.401,123.997 148.401,124.865 C148.401,125.732 149.105,126.435 149.972,126.435 C150.84,126.435 151.543,125.732 151.543,124.865 C151.543,123.998 150.84,123.294 149.972,123.294 Z" id="Shape" fill="#FFFFFF" fill-rule="nonzero"></path>
        </g>
    </g>
</svg>